<?xml version="1.0" standalone="no"?>
<!DOCTYPE svg PUBLIC "-//W3C//DTD SVG 20010904//EN"
 "http://www.w3.org/TR/2001/REC-SVG-20010904/DTD/svg10.dtd">
<svg version="1.0" xmlns="http://www.w3.org/2000/svg"
 width="16.000000pt" height="16.000000pt" viewBox="0 0 16.000000 16.000000"
 preserveAspectRatio="xMidYMid meet">
<metadata>
Created by potrace 1.11, written by Peter Selinger 2001-2013
</metadata>
<g transform="translate(0.000000,16.000000) scale(0.016327,-0.016327)"
fill="#000000" stroke="none">
<path d="M223 966 c-8 -4 -22 -9 -31 -11 -12 -2 -16 -10 -14 -30 5 -40 26 -67
64 -79 49 -17 48 -36 -4 -36 -27 0 -52 -8 -68 -20 l-25 -19 0 -311 0 -311 25
-19 c23 -18 44 -20 320 -20 276 0 297 2 320 20 l25 19 3 304 3 303 -25 27 -25
27 -246 0 c-253 0 -275 4 -195 36 37 15 55 41 62 89 2 15 -3 21 -24 23 -16 2
-28 6 -28 10 0 10 -118 9 -137 -2z m4 -35 c0 -9 3 -29 7 -44 5 -22 4 -28 -6
-25 -19 7 -42 52 -36 70 8 20 37 19 35 -1z m173 -5 c0 -24 -26 -66 -41 -66 -9
0 -3 63 7 81 8 15 34 4 34 -15z"/>
</g>
</svg>
